<?xml version="1.0" encoding="UTF-8" standalone="no"?>
<!DOCTYPE svg PUBLIC "-//W3C//DTD SVG 1.1//EN" "http://www.w3.org/Graphics/SVG/1.1/DTD/svg11.dtd">
<svg width="100%" height="100%" viewBox="0 0 10800 3000" version="1.1" xmlns="http://www.w3.org/2000/svg" xmlns:xlink="http://www.w3.org/1999/xlink" xml:space="preserve" xmlns:serif="http://www.serif.com/" style="fill-rule:evenodd;clip-rule:evenodd;stroke-linejoin:round;stroke-miterlimit:2;">
    <g>
        <g>
            <g>
                <circle cx="3775.921163285421" cy="1500" r="1457.382665355234" style="fill:white;"/>
            </g>
            <g>
                <circle cx="1690.686493995891" cy="1500" r="1457.382665355234" style="fill:white;"/>
            </g>
            <g>
                <circle cx="3775.921163285421" cy="1500" r="1394.018201644137" style="fill:rgb(20,20,19);"/>
            </g>
            <g>
                <ellipse cx="3775.921606753091" cy="1500.000287522995" rx="1120.852560726962" ry="1120.852497374437" style="fill:white;"/>
            </g>
            <g>
                <circle cx="1690.686493995891" cy="1500" r="1394.018201644137" style="fill:rgb(20,20,19);"/>
            </g>
            <g>
                <g>
                    <path d="M1691.794858902709,2331.658328214381C1589.778105953413,2331.658328214381 1500.69826008028,2312.437780556531 1424.555321285532,2273.99668524304C1348.412382490784,2235.555589929554 1289.641861769994,2180.481328372116 1248.243759123162,2108.773900575159C1206.84565647633,2037.066472778205 1186.146605154025,1953.161389735099 1186.146605154025,1857.058651450266L1186.146605154025,1142.941380805195C1186.146605154025,1045.360138853694 1206.84565647633,961.085429895581 1248.243759123162,890.117253930853C1289.641861769994,819.149077966125 1348.412382490784,764.444442325912 1424.555321285532,726.00334701242C1500.69826008028,687.562251698934 1589.778105953413,668.34170404108 1691.794858902709,668.34170404108C1795.290115518678,668.34170404108 1884.369961389588,687.93187761394 1959.034396519886,727.112224761869C2033.698831650184,766.292571909803 2091.730100536527,820.997207547804 2133.128203183358,891.226131680302C2174.52630583019,961.455055812804 2195.225357152495,1045.360138853694 2195.225357152495,1142.941380805195L1937.965719280358,1142.941380805195C1937.965719280358,1063.102182844876 1916.527416123605,1002.113906625189 1873.650809812323,959.976552146132C1830.774203501041,917.839197667075 1770.155553196355,896.770520427546 1691.794858902709,896.770520427546C1613.434164609063,896.770520427546 1552.445888389375,917.839197667075 1508.830030243646,959.976552146132C1465.214172097916,1002.113906625189 1443.406243026163,1063.102182844876 1443.406243026163,1142.941380805195L1443.406243026163,1857.058651450266C1443.406243026163,1935.419345743916 1465.214172097916,1996.037996048598 1508.830030243646,2038.91460235988C1552.445888389375,2081.791208671167 1613.434164609063,2103.229511827914 1691.794858902709,2103.229511827914C1770.155553196355,2103.229511827914 1830.774203501041,2081.791208671167 1873.650809812323,2038.91460235988C1916.527416123605,1996.037996048598 1937.965719280358,1935.419345743916 1937.965719280358,1857.058651450266L2195.225357152495,1857.058651450266C2195.225357152495,1951.682886070643 2174.52630583019,2034.848717279308 2133.128203183358,2106.556145076261C2091.730100536527,2178.263572873218 2033.698831650184,2233.707460345662 1959.034396519886,2272.887807493591C1884.369961389588,2312.068154641525 1795.290115518678,2331.658328214381 1691.794858902709,2331.658328214381Z" style="fill:white;fill-rule:nonzero;"/>
                </g>
            </g>
            <g>
                <g>
                    <path d="M3473.552609665528,2309.480784453216L3473.552609665528,690.519270257869L3733.030003036563,690.519270257869L3733.030003036563,2069.96319057226L4429.405229690452,2069.96319057226L4429.405229690452,2309.480784453216L3473.552609665528,2309.480784453216Z" style="fill-rule:nonzero;"/>
                </g>
            </g>
        </g>
        <g>
            <g>
                <g>
                    <clipPath id="_clip1">
                        <path d="M5293.197776435118,670.389698207844L6167.595554596337,670.389698207844L6211.117291384115,689.135822151438L6424.585293516197,914.919285945187L6440.957504546401,956.067109857628L6440.957504546401,2043.932890158787L6424.585293531098,2085.080714039039L6211.117291333954,2310.864177901414L6167.595554576328,2329.610301792098L5293.197776421424,2329.610301792098L5233.303828640652,2269.716354104166L5233.303828640652,2105.510198388773L5293.197776678062,2045.616250684019L5376.984214720113,2045.616270426661L5376.984350763028,954.38374931633L5293.197776497444,954.38374931633L5233.303828640652,894.489801627991L5233.303828640652,730.283645913005L5293.197776435118,670.389698207844ZM5685.609268337706,2033.300740272738L6060.348746883508,2033.300838173483L6132.33253010991,1959.932617327082L6132.332559240225,1039.728782709921L6062.05880661188,966.699210979918L5685.609189156603,966.699244656949L5685.609268337706,2033.300740272738ZM6982.050980386339,2310.864177878306L6768.582978182545,2085.080714008887L6752.210767196229,2043.932890174387L6752.210767196229,956.06710984197L6768.582978182938,914.919285990647L6982.050980386746,689.135822121636L7025.572717165909,670.389698207844L7604.399415401946,670.389698207844L7647.921152179551,689.135822151438L7861.389154301476,914.919285933836L7877.761365341852,956.067109857628L7877.761365341852,2043.932890152908L7861.389154326927,2085.080714039039L7647.921152140363,2310.864177890064L7604.399415372172,2329.610301792098L7025.572717145144,2329.610301792098L6982.050980386339,2310.864177878306ZM7131.10952627752,2033.300844138546L7497.152607692275,2033.300838160561L7569.13639090574,1959.932617343904L7569.136420080715,1039.728782756953L7498.862824722208,966.699210979918L7132.819524785475,966.699161901255L7060.835741632356,1040.067382690904L7060.835712421322,1960.271217205795L7131.10952627752,2033.300844138546ZM9028.887814291229,1725.414247420616L9193.093970151996,1725.414247420616L9252.987917817969,1785.308195215068L9252.987917817969,2043.932890081196L9236.615706803044,2085.080714039039L9023.147704582792,2310.864177925687L8979.625967848289,2329.610301792098L8462.376577938645,2329.610301792098L8418.854841182198,2310.864177878306L8205.386838967825,2085.080713997537L8189.014627992074,2043.93289019051L8189.014627992074,956.067109835683L8205.386838950959,914.919286020449L8418.854841220978,689.135822080483L8462.376577961739,670.389698207844L8979.625967881599,670.389698207844L9023.147704627467,689.135822121636L9236.615706754848,914.919285909913L9252.987917817969,956.067109841562L9252.987917817969,1214.691804707283L9193.09396981074,1274.585752579325L9028.887814620364,1274.585752579325L8968.993866709527,1214.691804784816L8968.993910292527,1064.485292423691L8874.216547120581,966.699210979918L8569.623385575425,966.699161907134L8497.639602428186,1040.067382673675L8497.63957322303,1960.271217211615L8567.913378360434,2033.300789019966L8872.441680242613,2033.300701555389L8968.993866709527,1935.239751747227L8968.993866709527,1785.308195053251L9028.887814291229,1725.414247420616ZM10486.217444534544,1274.585752579325L10315.853558500414,1274.585752579325L10255.959610593869,1214.691804978356L10255.959628888377,1058.300757707329L10167.3129473851,966.699210979918L9903.798399175401,966.699161903234L9831.814616024247,1040.067190780246L9831.81447108151,1274.392071833194L9897.661055705961,1341.58235889388L10299.432942895088,1341.58235889388L10342.794692790427,1360.159922246647L10550.104964151644,1577.73307832866L10566.63716197398,1619.049462751544L10566.63716197398,2043.932890184224L10550.26495095907,2085.080714039039L10336.796948801508,2310.864177859505L10293.275212004315,2329.610301792098L9776.025822094642,2329.610301792098L9732.504085338602,2310.864177878306L9519.036083117564,2085.080713990843L9502.663872148099,2043.932890293538L9502.663872148099,1785.308195175487L9562.557819737252,1725.414247420616L9732.921706417488,1725.414247420616L9792.815654088554,1785.308195215068L9792.81565814311,1941.410845152801L9883.223369924846,2033.300789019966L10187.738511721313,2033.300753803516L10258.012187537883,1960.271237942099L10258.012037789464,1703.022005266976L10194.211061705777,1637.891871666012L9792.446437697596,1637.891871666012L9749.094233350916,1619.324324187881L9539.731385141698,1399.698591262568L9523.18964158812,1358.372190864291L9523.18964158812,956.067109894822L9539.561852603059,914.919285960845L9753.029854772758,689.135822127515L9796.5515915578,670.389698207844L10272.74944260031,670.389698207844L10316.271179343836,689.135822121636L10529.739181526078,914.919285968295L10546.111392534352,956.067109841562L10546.111392534352,1214.691804840055L10486.217444534544,1274.585752579325Z"/>
                    </clipPath>
                    <g clip-path="url(#_clip1)">
                        <g>
                            <g>
                                <path d="M5293.217552306545,670.446422555193L6167.621835841971,670.446422555193L6211.143896424281,689.192685966806L6424.613486722898,914.977829551884L6440.985819559621,956.125959597513L6440.985819559621,2043.9998334396L6424.613486738087,2085.147963452593L6211.143896374422,2310.933107106464L6167.621835822307,2329.679370465346L5293.217552292856,2329.679370465346L5233.323158911118,2269.784977176314L5233.323158911118,2105.577599794438L5293.217552549737,2045.683206488431L5377.00461394892,2045.683226231393L5377.004749992628,954.442586532106L5293.217552368873,954.442586532106L5233.323158911118,894.548193243075L5233.323158911118,730.340815861198L5293.217552306545,670.446422555193ZM5685.631963685679,2033.3676044519L6060.374230230855,2033.367702353651L6132.358549004788,1959.998935659669L6132.358578135033,1039.788254878727L6062.084302681969,966.75813982106L5685.631884503752,966.758173498084L5685.631963685679,2033.3676044519Z" style="fill:white;"/>
                            </g>
                        </g>
                        <g>
                            <g>
                                <path d="M6982.083321045538,2310.933107083423L6768.613730675162,2085.14796342244L6752.241397882139,2043.999833455149L6752.241397882139,956.125959581768L6768.613730675593,914.977829597636L6982.083321045743,689.19268593691L7025.605381619442,670.446422555193L7604.436386229999,670.446422555193L7647.958446802271,689.192685966806L7861.428037090349,914.977829540727L7877.800369937611,956.125959597513L7877.800369937611,2043.999833433576L7861.428037116078,2085.147963452593L7647.958446762964,2310.933107095309L7604.436386200298,2329.679370465346L7025.605381598773,2329.679370465346L6982.083321045538,2310.933107083423ZM7131.142975907343,2033.367708318741L7497.188780621859,2033.367702340392L7569.173099382779,1959.998935676613L7569.17312855813,1039.788254925587L7498.899010375718,966.75813982106L7132.852987137318,966.758090741877L7060.86866843697,1040.126857378933L7060.868639225618,1960.337538057531L7131.142975907343,2033.367708318741Z" style="fill:white;"/>
                            </g>
                        </g>
                        <g>
                            <g>
                                <path d="M9028.935383076594,1725.478820975617L9193.142760603689,1725.478820975617L9253.037153870871,1785.373214371046L9253.037153870871,2043.999833361693L9236.664821049337,2085.147963452593L9023.195230662603,2310.93310713087L8979.673170133558,2329.679370465346L8462.419931974331,2329.679370465346L8418.897871423569,2310.933107083423L8205.428281042652,2085.147963411295L8189.055948260169,2043.999833471209L8189.055948260169,956.125959575734L8205.428281025555,914.977829627326L8418.897871462385,689.192685896072L8462.419931997474,670.446422555193L8979.673170166789,670.446422555193L9023.195230707463,689.192685937113L9236.664821001083,914.977829516907L9253.037153870871,956.125959581451L9253.037153870871,1214.752578572099L9193.142760262652,1274.64697204492L9028.935383405706,1274.64697204492L8969.040989893947,1214.752578649492L8969.041033477019,1064.544948776846L8874.262965177182,966.75813982106L8569.667537509438,966.758090747891L8497.683218815002,1040.126857361639L8497.683189609428,1960.337538063535L8567.957517572471,2033.367653199477L8872.488085094523,2033.367565734541L8969.040989893947,1935.305886368811L8969.040989893947,1785.373214209116L9028.935383076594,1725.478820975617Z" style="fill:white;"/>
                            </g>
                        </g>
                        <g>
                            <g>
                                <path d="M10486.275855610547,1274.64697204492L10315.910702097241,1274.64697204492L10256.016308589682,1214.752578842939L10256.016326884219,1058.360368048725L10167.368985864521,966.75813982106L9903.852477150147,966.758090743847L9831.868158451727,1040.126665466702L9831.86801350801,1274.453289858071L9897.715088019933,1341.644076803206L10299.489964325114,1341.644076803206L10342.852036824683,1360.221778369953L10550.16385053991,1577.796553160189L10566.696171359339,1619.11324497016L10566.696171359339,2043.999833464795L10550.323838537806,2085.147963452593L10336.854248213633,2310.933107064693L10293.332187622025,2329.679370465346L9776.078949462799,2329.679370465346L9732.556888912037,2310.933107083423L9519.087298524686,2085.14796340449L9502.714965748637,2043.999833574189L9502.714965748637,1785.373214331512L9562.609358938971,1725.478820975617L9732.974513098219,1725.478820975617L9792.868906370039,1785.373214371046L9792.868910424608,1941.477025686592L9883.277294824833,2033.367653199477L10187.794702163334,2033.3676179827L10258.068900804505,1960.337558794163L10258.068751054809,1703.0864122273L10194.267300302774,1637.955794069074L9792.499687232195,1637.955794069074L9749.147160352542,1619.388108451458L9539.782754518492,1399.760741547116L9523.240887896894,1358.434033687294L9523.240887896894,956.125959634592L9539.613220718418,914.977829567943L9753.082811054763,689.192685942974L9796.604871634197,670.446422555193L10272.806265509862,670.446422555193L10316.328326047673,689.192685937113L10529.797916396363,914.977829575159L10546.170249211082,956.125959581451L10546.170249211082,1214.752578704625L10486.275855610547,1274.64697204492Z" style="fill:white;"/>
                            </g>
                        </g>
                    </g>
                </g>
            </g>
            <path d="M5293.19849369388,730.285888465558L6167.596277252175,730.285888465558L6381.064280749975,956.069353703615L6381.064280749975,2043.935140759711L6167.596277252175,2269.718605997768L5293.19849369388,2269.718605997768L5293.19849369388,2105.512449460999L5436.878880663553,2105.512449460999L5436.878880663553,894.492045002326L5293.19849369388,894.492045002326L5293.19849369388,730.285888465558ZM5625.715960680837,2093.196987720741L6085.493198983791,2093.196987720741L6192.22720073269,1984.41040901513L6192.22720073269,1015.594085448193L6087.5457759405,906.807506742583L5625.715960680837,906.807506742583L5625.715960680837,2093.196987720741Z" style="fill-rule:nonzero;"/>
            <path d="M7025.573445156773,2269.718605997768L6812.105441658974,2043.935140759711L6812.105441658974,956.069353703615L7025.573445156773,730.285888465558L7604.400146948885,730.285888465558L7817.868150446685,956.069353703615L7817.868150446685,2043.935140759711L7604.400146948885,2269.718605997768L7025.573445156773,2269.718605997768ZM7105.623946468449,2093.196987720741L7522.2970686805,2093.196987720741L7629.031070429401,1984.41040901513L7629.031070429401,1015.594085448193L7524.34964563721,906.807506742583L7107.676523425158,906.807506742583L7000.942521676258,1015.594085448193L7000.942521676258,1984.41040901513L7105.623946468449,2093.196987720741Z" style="fill-rule:nonzero;"/>
            <path d="M9028.888554905378,1785.310444214299L9193.094711442147,1785.310444214299L9193.094711442147,2043.935140759711L8979.626707944346,2269.718605997768L8462.377314853526,2269.718605997768L8248.909311355725,2043.935140759711L8248.909311355725,956.069353703615L8462.377314853526,730.285888465558L8979.626707944346,730.285888465558L9193.094711442147,956.069353703615L9193.094711442147,1214.694050249026L9028.888554905378,1214.694050249026L9028.888554905378,1040.225008928709L8899.576206632672,906.807506742583L8544.48039312191,906.807506742583L8437.74639137301,1015.594085448193L8437.74639137301,1984.41040901513L8542.4278161652,2093.196987720741L8897.523629675961,2093.196987720741L9028.888554905378,1959.779485534616L9028.888554905378,1785.310444214299Z" style="fill-rule:nonzero;"/>
            <path d="M10486.218194169203,1214.694050249026L10315.854306762307,1214.694050249026L10315.854306762307,1034.067278058579L10192.69968935973,906.807506742583L9878.655414983157,906.807506742583L9771.921413234259,1015.594085448193L9771.921413234259,1298.84970547412L9872.49768411303,1401.478553309602L10299.433691108628,1401.478553309602L10506.743963736299,1619.05171072082L10506.743963736299,2043.935140759711L10293.275960238501,2269.718605997768L9776.026567147677,2269.718605997768L9562.558563649876,2043.935140759711L9562.558563649876,1785.310444214299L9732.922451056776,1785.310444214299L9732.922451056776,1965.937216404745L9858.129645416062,2093.196987720741L10213.225458926827,2093.196987720741L10317.906883719015,1984.41040901513L10317.906883719015,1678.576442465399L10219.383189796954,1578.000171586627L9792.447182801356,1578.000171586627L9583.084333216973,1358.374437218699L9583.084333216973,956.069353703615L9796.552336714774,730.285888465558L10272.750190671404,730.285888465558L10486.218194169203,956.069353703615L10486.218194169203,1214.694050249026Z" style="fill-rule:nonzero;"/>
        </g>
    </g>
</svg>
