<?xml version="1.0" encoding="UTF-8" standalone="no"?>
<!DOCTYPE svg PUBLIC "-//W3C//DTD SVG 1.1//EN" "http://www.w3.org/Graphics/SVG/1.1/DTD/svg11.dtd">
<svg width="1028" height="1028" viewBox="0 0 1028 1028" version="1.1" xmlns="http://www.w3.org/2000/svg" xmlns:xlink="http://www.w3.org/1999/xlink" xml:space="preserve" xmlns:serif="http://www.serif.com/" style="fill-rule:evenodd;clip-rule:evenodd;stroke-linejoin:round;stroke-miterlimit:2;">
    <g>
        <circle cx="727.946076" cy="430.000000000001" r="299.05635" style="fill:white;"/>
    </g>
    <g>
        <circle cx="300.05388" cy="430.000000000001" r="299.05635" style="fill:white;"/>
    </g>
    <g>
        <circle cx="727.946076" cy="430.000000000001" r="286.0539" style="fill:rgb(20,20,19);"/>
    </g>
    <g>
        <ellipse cx="727.946167" cy="430.000059000001" rx="230.000043" ry="230.00003" style="fill:white;"/>
    </g>
    <g>
        <circle cx="300.05388" cy="430.000000000001" r="286.0539" style="fill:rgb(20,20,19);"/>
    </g>
    <g>
        <g>
            <path d="M300.28131756419,600.657103309427C279.34737996419,600.657103309427 261.068108364038,596.713028109276 245.44350276419,588.824877709427C229.818897164342,580.936727309579 217.759128764342,569.635434909276 209.26419756419,554.921000509427C200.769266364038,540.206566109579 196.52180076419,522.989160909276 196.52180076419,503.268784909427L196.52180076419,356.731221709427C196.52180076419,336.707455309427 200.769266364038,319.414202509427 209.26419756419,304.851463309427C217.759128764342,290.288724109427 229.818897164342,279.063279309276 245.44350276419,271.175128909427C261.068108364038,263.286978509579 279.34737996419,259.342903309427 300.28131756419,259.342903309427C321.518645564342,259.342903309427 339.797917164038,263.362826109276 355.11913236419,271.402671709427C370.440347564342,279.442517309579 382.348420764038,290.667962109276 390.84335196419,305.079006109427C399.338283164342,319.490050109579 403.58574876419,336.707455309427 403.58574876419,356.731221709427L350.79581916419,356.731221709427C350.79581916419,340.348140109427 346.396658364038,327.833286109427 337.59833676419,319.186659709427C328.800015164342,310.540033309427 316.361008764038,306.216720109427 300.28131756419,306.216720109427C284.201626364342,306.216720109427 271.686772364342,310.540033309427 262.73675556419,319.186659709427C253.786738764038,327.833286109427 249.31173036419,340.348140109427 249.31173036419,356.731221709427L249.31173036419,503.268784909427C249.31173036419,519.348476109276 253.786738764038,531.787482509579 262.73675556419,540.585804109427C271.686772364342,549.384125709276 284.201626364342,553.783286509427 300.28131756419,553.783286509427C316.361008764038,553.783286509427 328.800015164342,549.384125709276 337.59833676419,540.585804109427C346.396658364038,531.787482509579 350.79581916419,519.348476109276 350.79581916419,503.268784909427L403.58574876419,503.268784909427C403.58574876419,522.685770509579 399.338283164342,539.751480509579 390.84335196419,554.465914909427C382.348420764038,569.180349309276 370.440347564342,580.557489309276 355.11913236419,588.597334909427C339.797917164038,596.637180509579 321.518645564342,600.657103309427 300.28131756419,600.657103309427Z" style="fill:white;fill-rule:nonzero;"/>
        </g>
    </g>
    <g>
        <g>
            <path d="M665.89975271791,596.106249613385L665.89975271791,263.893761613385L719.14476791791,263.893761613385L719.14476791791,546.957004813385L862.04164631791,546.957004813385L862.04164631791,596.106249613385L665.89975271791,596.106249613385Z" style="fill-rule:nonzero;"/>
        </g>
    </g>
    <g transform="matrix(38.178423,0,0,38.178423,-10983.055109,-34545.669896)">
        <clipPath id="_clip1">
            <path d="M294.48715152827,924.262640487881L296.718778525386,924.262640487881L296.829854153896,924.310484109318L297.374664500487,924.886725822059L297.416449451284,924.991742780026L297.416449451284,927.768180123753L297.374664500525,927.873197081638L296.829854153768,928.449438794554L296.718778525335,928.497282415856L294.487151528235,928.497282415856L294.334290949023,928.344421836881L294.334290949023,927.925336954303L294.48715152889,927.772476375285L294.700990220841,927.772476425672L294.700990568048,924.987446528453L294.487151528429,924.987446528453L294.334290949023,924.834585949477L294.334290949023,924.4155010669L294.48715152827,924.262640487881ZM295.48865919581,927.741044884717L296.445064573425,927.741045134578L296.6287806784,927.553795685345L296.628780752746,925.205263047831L296.449428966327,925.018877894608L295.488658993725,925.018877980558L295.48865919581,927.741044884717ZM298.797421405704,928.449438794495L298.25261105893,927.873197081561L298.210826108245,927.768180123793L298.210826108245,924.991742779986L298.252611058931,924.886725822175L298.797421405705,924.310484109242L298.908497034193,924.262640487881L300.385771243594,924.262640487881L300.496846872078,924.310484109318L301.041657218643,924.88672582203L301.083442169466,924.991742780026L301.083442169466,927.768180123738L301.041657218708,927.873197081638L300.496846871978,928.449438794525L300.385771243518,928.497282415856L298.90849703414,928.497282415856L298.797421405704,928.449438794495ZM299.17784674926,927.741045149802L300.112057291641,927.741045134545L300.295773396583,927.553795685388L300.295773471043,925.205263047951L300.116422086006,925.018877894608L299.182210985916,925.01887776935L298.998494881128,925.206127218438L298.998494806576,927.554659855691L299.17784674926,927.741045149802ZM304.021332595002,926.955260855232L304.440417477951,926.955260855232L304.59327805687,927.108121434479L304.59327805687,927.768180123555L304.551493106112,927.873197081638L304.006682759296,928.449438794616L303.895607130922,928.497282415856L302.575489752317,928.497282415856L302.464414123887,928.449438794495L301.919603777086,927.873197081532L301.877818826428,927.768180123834L301.877818826428,924.99174277997L301.919603777043,924.886725822251L302.464414123986,924.310484109137L302.575489752376,924.262640487881L303.895607131007,924.262640487881L304.00668275941,924.310484109242L304.551493105989,924.886725821969L304.59327805687,924.991742779985L304.59327805687,925.65180146906L304.44041747708,925.804662048505L304.021332595842,925.804662048505L303.868472016298,925.651801469258L303.86847212753,925.268446300135L303.626582534884,925.018877894608L302.849203704084,925.018877769365L302.665487599311,925.206127218394L302.665487524774,927.554659855706L302.844839445206,927.741045009129L303.622052741991,927.741044785903L303.868472016298,927.490774864798L303.868472016298,927.108121434066L304.021332595002,926.955260855232ZM307.740710923464,925.804662048505L307.305910359118,925.804662048505L307.153049779585,925.651801469752L307.153049826276,925.252662208521L306.926806882174,925.018877894608L306.254268370978,925.018877769355L306.070552266195,925.206126728646L306.070551896274,925.804167738944L306.23860472027,925.975649943375L307.264001870774,925.975649943375L307.374669182752,926.023063366595L307.903763846421,926.578350835396L307.945957113494,926.683797991375L307.945957113494,927.768180123818L307.904172162736,927.873197081638L307.35936181608,928.449438794447L307.248286187546,928.497282415856L305.928168808941,928.497282415856L305.817093180512,928.449438794495L305.272282833694,927.873197081515L305.230497883052,927.768180124097L305.230497883052,927.108121434378L305.383358461775,926.955260855232L305.81815902777,926.955260855232L305.971019606702,927.108121434479L305.97101961705,927.506524651668L306.20175704045,927.741045009129L306.97893675023,927.74104491925L307.158288340611,927.554659908614L307.158287958425,926.898111656819L306.995455910784,926.731887350102L305.970077297279,926.731887350102L305.85943434733,926.684499489271L305.32510112288,926.123973459701L305.282883493312,926.018500741076L305.282883493312,924.991742780121L305.32466844407,924.886725822099L305.869478790757,924.310484109257L305.98055441926,924.262640487881L307.195900577378,924.262640487881L307.306976205775,924.310484109242L307.851786552494,924.886725822118L307.893571503235,924.991742779985L307.893571503235,925.651801469399L307.740710923464,925.804662048505Z" clip-rule="nonzero"/>
        </clipPath>
        <g clip-path="url(#_clip1)">
            <g transform="matrix(0.026193,-0,-0,0.026193,287.677022,904.848)">
                <g>
                    <path d="M259.999999999998,741.220374109336L345.200000001914,741.220374109336L349.440692358433,743.046968137727L370.240692354218,765.046968133269L371.835975890662,769.056350001564L371.835975890662,875.056350000049L370.240692355698,879.065731865164L349.440692353575,901.065731867409L345.199999999998,902.892325890662L259.999999998664,902.892325890662L254.164024109335,897.056350010366L254.164024109335,881.056349991286L260.000000023694,875.220374109336L268.164024109335,875.220376033046L268.16403736513,768.892325890662L260.000000006071,768.892325890662L254.164024109335,763.056350010366L254.164024109335,747.056349991286L259.999999999998,741.220374109336ZM298.235983605972,874.020369359481L334.750032898222,874.020378898809L341.764024109335,866.87149017517L341.764026947721,777.208217155393L334.916658537622,770.092325890662L298.235975890662,770.092329172076L298.235983605972,874.020369359481Z" style="fill:white;"/>
                </g>
            </g>
            <g transform="matrix(0.026193,-0,-0,0.026193,287.677022,904.848)">
                <g>
                    <path d="M424.559307644296,901.065731865164L403.759307641519,879.065731862226L402.164024109333,875.056350001564L402.164024109333,769.05635000003L403.759307641561,765.046968137727L424.559307644316,743.046968134814L428.799999999996,741.220374109336L485.20000000289,741.220374109336L489.440692358431,743.046968137727L510.240692353189,765.046968132182L511.83597589066,769.056350001564L511.83597589066,875.056349999462L510.240692355696,879.065731865164L489.440692354601,901.065731866322L485.199999999996,902.892325890662L428.799999997982,902.892325890662L424.559307644296,901.065731865164ZM439.083347420454,874.020379480034L474.750032899488,874.020378897517L481.764024109333,866.871490176821L481.764026952114,777.208217159959L474.916673866116,770.092325890662L439.249967094603,770.092321108496L432.23597589066,777.241209826588L432.235973044371,866.904482836393L439.083347420454,874.020379480034Z" style="fill:white;"/>
                </g>
            </g>
            <g transform="matrix(0.026193,-0,-0,0.026193,287.677022,904.848)">
                <g>
                    <path d="M623.999999979265,844.020374109336L640.000000012495,844.020374109336L645.835975890662,849.856349999999L645.835975890662,875.056349992458L644.240692355698,879.065731865164L623.440692351327,901.065731869787L619.199999999998,902.892325890662L568.799999997743,902.892325890662L564.559307644298,901.065731865164L543.759307640494,879.06573186114L542.164024109335,875.056350003129L542.164024109335,769.056349999442L543.759307638828,765.04696814062L564.55930764808,743.046968130835L568.799999999998,741.220374109336L619.200000003236,741.220374109336L623.440692355698,743.046968134834L644.240692350996,765.046968129861L645.835975890662,769.056349999999L645.835975890662,794.256349992458L639.999999979265,800.092325890662L624.000000011333,800.092325890662L618.164024109335,794.256349999999L618.164028355972,779.620454103317L608.929065111421,770.092325890662L579.249967094029,770.092321109082L572.235975890662,777.241209824903L572.235973044936,866.904482836978L579.08334657149,874.020374109336L608.756124761181,874.020365586948L618.164024109335,864.465454615598L618.164024109335,849.856349984221L623.999999979265,844.020374109336Z" style="fill:white;"/>
                </g>
            </g>
            <g transform="matrix(0.026193,-0,-0,0.026193,287.677022,904.848)">
                <g>
                    <path d="M765.999999980014,800.092325890662L749.400000010924,800.092325890662L743.564024109335,794.256350018848L743.564025891914,779.017842373286L734.926427017729,770.092325890662L709.249967094417,770.092321108688L702.235975890662,777.241191127089L702.23596176767,800.073453931054L708.651953608262,806.620374109336L747.800000005709,806.620374109336L752.025103480853,808.430543848124L772.22510348259,829.630543849947L773.835975890662,833.656349999999L773.835975890662,875.056350002504L772.240692355698,879.065731865164L751.440692357423,901.065731863339L747.199999999998,902.892325890662L696.799999997743,902.892325890662L692.559307644298,901.065731865164L671.759307639867,879.065731860477L670.164024109335,875.056350013163L670.164024109335,849.856349996147L675.999999980014,844.020374109336L692.600000012043,844.020374109336L698.435975890662,849.856349999999L698.43597628573,865.066756644633L707.24516729281,874.020374109336L736.916663183615,874.020370677892L743.764024109335,866.904484856924L743.764009518059,841.838507824686L737.547338686785,835.492325890662L698.400000002692,835.492325890662L694.175826631428,833.683132083582L673.775826639045,812.283132091573L672.164024109335,808.256349999999L672.164024109335,769.056350005177L673.759307644298,765.046968134834L694.559307643759,743.046968135405L698.799999999998,741.220374109336L745.200000003515,741.220374109336L749.440692355698,743.046968134834L770.240692356362,765.046968135537L771.835975890662,769.056349999999L771.835975890662,794.256350005371L765.999999980014,800.092325890662Z" style="fill:white;"/>
                </g>
            </g>
        </g>
    </g>
    <path d="M259.999999999998,747.056349999999L345.199999999998,747.056349999999L365.999999999998,769.056349999999L365.999999999998,875.056349999999L345.199999999998,897.056349999999L259.999999999998,897.056349999999L259.999999999998,881.056349999999L273.999999999998,881.056349999999L273.999999999998,763.056349999999L259.999999999998,763.056349999999L259.999999999998,747.056349999999ZM292.399999999998,879.856349999999L337.199999999998,879.856349999999L347.599999999998,869.256349999999L347.599999999998,774.856349999999L337.399999999998,764.256349999999L292.399999999998,764.256349999999L292.399999999998,879.856349999999Z" style="fill-rule:nonzero;"/>
    <path d="M428.799999999996,897.056349999999L407.999999999996,875.056349999999L407.999999999996,769.056349999999L428.799999999996,747.056349999999L485.199999999996,747.056349999999L505.999999999996,769.056349999999L505.999999999996,875.056349999999L485.199999999996,897.056349999999L428.799999999996,897.056349999999ZM436.599999999996,879.856349999999L477.199999999996,879.856349999999L487.599999999996,869.256349999999L487.599999999996,774.856349999999L477.399999999996,764.256349999999L436.799999999996,764.256349999999L426.399999999996,774.856349999999L426.399999999996,869.256349999999L436.599999999996,879.856349999999Z" style="fill-rule:nonzero;"/>
    <path d="M623.999999999998,849.856349999999L639.999999999998,849.856349999999L639.999999999998,875.056349999999L619.199999999998,897.056349999999L568.799999999998,897.056349999999L547.999999999998,875.056349999999L547.999999999998,769.056349999999L568.799999999998,747.056349999999L619.199999999998,747.056349999999L639.999999999998,769.056349999999L639.999999999998,794.256349999999L623.999999999998,794.256349999999L623.999999999998,777.256349999999L611.399999999998,764.256349999999L576.799999999998,764.256349999999L566.399999999998,774.856349999999L566.399999999998,869.256349999999L576.599999999998,879.856349999999L611.199999999998,879.856349999999L623.999999999998,866.856349999999L623.999999999998,849.856349999999Z" style="fill-rule:nonzero;"/>
    <path d="M765.999999999998,794.256349999999L749.399999999998,794.256349999999L749.399999999998,776.656349999999L737.399999999998,764.256349999999L706.799999999998,764.256349999999L696.399999999998,774.856349999999L696.399999999998,802.456349999999L706.199999999998,812.456349999999L747.799999999998,812.456349999999L767.999999999998,833.656349999999L767.999999999998,875.056349999999L747.199999999998,897.056349999999L696.799999999998,897.056349999999L675.999999999998,875.056349999999L675.999999999998,849.856349999999L692.599999999998,849.856349999999L692.599999999998,867.456349999999L704.799999999998,879.856349999999L739.399999999998,879.856349999999L749.599999999998,869.256349999999L749.599999999998,839.456349999999L739.999999999998,829.656349999999L698.399999999998,829.656349999999L677.999999999998,808.256349999999L677.999999999998,769.056349999999L698.799999999998,747.056349999999L745.199999999998,747.056349999999L765.999999999998,769.056349999999L765.999999999998,794.256349999999Z" style="fill-rule:nonzero;"/>
</svg>
